<?xml version="1.0" encoding="UTF-8"?>
<svg id="Laag_1" data-name="Laag 1" xmlns="http://www.w3.org/2000/svg" version="1.1" viewBox="0 0 118.6 129.2">
  <defs>
    <style>
      .cls-1 {
        fill: #fbcdaf;
        stroke-width: 0px;
      }
    </style>
  </defs>
  <path class="cls-1" d="M59.2,110.4c-11.9,0-23.9,0-35.8,0-3.7,0-4.1-.6-3.7-4.3,1-9.7,1.8-19.5,2.7-29.2.9-9.7,1.8-19.3,2.8-29,.4-4.4.8-8.7,1.2-13.1.2-3.1.7-3.6,3.7-3.6,2.4,0,4.8,0,7.2,0,1.8,0,2.5-.7,2.6-2.5.4-4.8,1.2-9.4,5-12.9,6.3-5.9,13.7-7.1,21.5-4.6,7.9,2.5,11.7,8.7,12.1,16.8.1,2.6,1.2,3.2,3.5,3.1,2.5-.1,5,0,7.5,0,1.5,0,2.5.6,2.6,2.3.8,8.7,1.7,17.5,2.5,26.2.9,9.7,1.9,19.3,2.8,29,.6,6.1,1.2,12.2,1.7,18.3.2,2.9-.3,3.3-3.2,3.3-12.2,0-24.4,0-36.6,0ZM59,31.2h0c4.1,0,8.1,0,12.2,0,1.8,0,2.5.7,2.5,2.5,0,1.5-.2,3,.3,4.4.3,1,1,1.8,2.2,1.6,1.1-.1,1.8-.8,1.9-1.9,0-1.1,0-2.2,0-3.2,0-1.3.3-2.8-2-2.1-1.1.3-1.8-.7-2.2-1.7-.4-1.1-.3-2.3-.3-3.4-.1-5.6-4.4-10.9-9.9-11.9-1.9-.4-4,0-5.9-.2-7.6-.6-12.9,6.6-13.1,13.4,0,1.9.7,2.7,2.6,2.6,3.9,0,7.8,0,11.7,0ZM69.7,70.7c0-6.1-1.6-10.5-4.7-13.5-3.4-3.3-8.1-3.3-11.5,0-5.6,5.5-6.4,18.1-1.5,24.2,4.6,5.8,11.6,5.3,15.3-1.1,1.8-3.1,2.6-6.4,2.5-9.6ZM44.8,35.4c-.4-.8.5-2.7-.5-2.7-1.1,0-2.6,0-3.7.5-.7.2-.4,1.5-.3,2.3.1,1.7-.8,4.2,2,4.3,2.8,0,2.3-2.4,2.5-4.4Z"/>
  <path class="cls-1" d="M66.6,70.2c-.2,2.9-.8,6-2.3,8.8-1.1,2-2.7,3.4-5.1,3.4-2.4,0-4-1.4-5.1-3.4-3-6-3.1-12,0-17.9,2.4-4.5,7.4-4.6,10.1-.2,1.3,2.1,2.4,6.4,2.4,9.3Z"/>
</svg>